<svg id="Group_311" data-name="Group 311" xmlns="http://www.w3.org/2000/svg" xmlns:xlink="http://www.w3.org/1999/xlink" width="29.754" height="39.976" viewBox="0 0 29.754 39.976">
  <defs>
    <linearGradient id="linear-gradient" x1="0.5" x2="0.5" y2="1" gradientUnits="objectBoundingBox">
      <stop offset="0" stop-color="#740000"/>
      <stop offset="1" stop-color="#8e8000"/>
    </linearGradient>
  </defs>
  <g id="Group_302" data-name="Group 302" transform="translate(12.397 20.106)">
    <g id="Group_287" data-name="Group 287" transform="translate(1.027 7.082)">
      <path id="Path_357" data-name="Path 357" d="M748.964,263.713c.323.748.3,1.478-.057,1.631s-.9-.329-1.226-1.078-.3-1.478.057-1.631S748.641,262.965,748.964,263.713Z" transform="translate(-747.456 -262.607)" fill="url(#linear-gradient)"/>
    </g>
    <g id="Group_288" data-name="Group 288" transform="translate(1.698 12.601)">
      <path id="Path_358" data-name="Path 358" d="M749.877,273.191c.334.631.392,1.256.129,1.4s-.747-.26-1.082-.891-.392-1.256-.129-1.4S749.543,272.56,749.877,273.191Z" transform="translate(-748.631 -272.272)" fill="url(#linear-gradient)"/>
    </g>
    <g id="Group_289" data-name="Group 289" transform="translate(3.73 14.02)">
      <path id="Path_359" data-name="Path 359" d="M753.562,275.719c.391.674.483,1.351.2,1.513s-.822-.254-1.213-.927-.483-1.351-.2-1.513S753.171,275.045,753.562,275.719Z" transform="translate(-752.188 -274.757)" fill="url(#linear-gradient)"/>
    </g>
    <g id="Group_290" data-name="Group 290" transform="translate(5.9 15.726)">
      <path id="Path_360" data-name="Path 360" d="M757.484,278.673c.391.674.449,1.371.129,1.557s-.9-.209-1.288-.883-.449-1.371-.129-1.557S757.093,278,757.484,278.673Z" transform="translate(-755.988 -277.744)" fill="url(#linear-gradient)"/>
    </g>
    <g id="Group_291" data-name="Group 291" transform="translate(3.27 8.636)">
      <path id="Path_361" data-name="Path 361" d="M752.892,266.434c.323.748.3,1.478-.057,1.63s-.9-.329-1.226-1.077-.3-1.479.057-1.631S752.569,265.686,752.892,266.434Z" transform="translate(-751.384 -265.328)" fill="url(#linear-gradient)"/>
    </g>
    <g id="Group_292" data-name="Group 292" transform="translate(5.552 10.261)">
      <path id="Path_362" data-name="Path 362" d="M757.092,269.292c.352.78.306,1.561-.1,1.745s-1.023-.3-1.375-1.079-.306-1.561.1-1.745S756.74,268.512,757.092,269.292Z" transform="translate(-755.379 -268.175)" fill="url(#linear-gradient)"/>
    </g>
    <g id="Group_293" data-name="Group 293" transform="translate(7.695 3.274)">
      <ellipse id="Ellipse_41" data-name="Ellipse 41" cx="1.413" cy="0.875" rx="1.413" ry="0.875" fill="url(#linear-gradient)"/>
    </g>
    <g id="Group_294" data-name="Group 294" transform="translate(2.762 3.33)">
      <path id="Path_363" data-name="Path 363" d="M753.48,256.732c.063.479-.554.955-1.377,1.063s-1.543-.192-1.605-.672.554-.955,1.377-1.063S753.418,256.253,753.48,256.732Z" transform="translate(-750.493 -256.038)" fill="url(#linear-gradient)"/>
    </g>
    <g id="Group_295" data-name="Group 295" transform="translate(12.364 3.261)">
      <path id="Path_364" data-name="Path 364" d="M770.012,256.647c.019.434-.571.813-1.317.846s-1.367-.293-1.386-.727.57-.813,1.317-.846S769.993,256.213,770.012,256.647Z" transform="translate(-767.308 -255.918)" fill="url(#linear-gradient)"/>
    </g>
    <g id="Group_296" data-name="Group 296" transform="translate(7.3 6.055)">
      <path id="Path_365" data-name="Path 365" d="M761.637,261.908c0,.607-.716,1.1-1.6,1.1s-1.6-.491-1.6-1.1.716-1.1,1.6-1.1S761.637,261.3,761.637,261.908Z" transform="translate(-758.44 -260.81)" fill="url(#linear-gradient)"/>
    </g>
    <g id="Group_297" data-name="Group 297" transform="translate(8.148 0.865)">
      <path id="Path_366" data-name="Path 366" d="M762.4,252.459c0,.408-.553.738-1.237.738s-1.237-.33-1.237-.738.554-.738,1.237-.738S762.4,252.051,762.4,252.459Z" transform="translate(-759.925 -251.721)" fill="url(#linear-gradient)"/>
    </g>
    <g id="Group_298" data-name="Group 298" transform="translate(10.034 9.662)">
      <path id="Path_367" data-name="Path 367" d="M763.659,268.269c-.5.839-.577,1.716-.171,1.958s1.14-.242,1.641-1.081.577-1.716.171-1.958S764.159,267.43,763.659,268.269Z" transform="translate(-763.227 -267.126)" fill="url(#linear-gradient)"/>
    </g>
    <g id="Group_299" data-name="Group 299" transform="translate(10.03 14.929)">
      <path id="Path_368" data-name="Path 368" d="M763.648,277.447c-.469.787-.568,1.594-.219,1.8s1.011-.262,1.481-1.05.568-1.594.219-1.8S764.117,276.659,763.648,277.447Z" transform="translate(-763.22 -276.348)" fill="url(#linear-gradient)"/>
    </g>
    <g id="Group_300" data-name="Group 300" transform="translate(14.54 6.368)">
      <path id="Path_369" data-name="Path 369" d="M771.5,262.373c-.444.745-.512,1.522-.152,1.737s1.013-.215,1.456-.959.512-1.523.152-1.737S771.944,261.628,771.5,262.373Z" transform="translate(-771.117 -261.358)" fill="url(#linear-gradient)"/>
    </g>
    <g id="Group_301" data-name="Group 301" transform="translate(14.293 11.326)">
      <path id="Path_370" data-name="Path 370" d="M771.042,270.952c-.39.654-.472,1.323-.184,1.5s.838-.219,1.228-.873.472-1.323.184-1.5S771.432,270.3,771.042,270.952Z" transform="translate(-770.686 -270.039)" fill="url(#linear-gradient)"/>
    </g>
    <path id="Path_371" data-name="Path 371" d="M762.024,253.64l-5.457-3.033a3.175,3.175,0,0,0-3.011-.041l-6.728,3.506a2.191,2.191,0,0,0-1.157,2.174l.874,7.761a1.468,1.468,0,0,0,.549.985l5.846,4.6a2.255,2.255,0,0,0,2.941-.131L761,264.638a5.511,5.511,0,0,0,1.73-3.74l.285-5.473A1.94,1.94,0,0,0,762.024,253.64Zm-14.947.91,6.727-3.506a2.638,2.638,0,0,1,2.5.034l5.457,3.033a1.389,1.389,0,0,1,.508.495l-2.873,2.162-3.734,2.8a1.96,1.96,0,0,1-2.091.166,3.58,3.58,0,0,0-.329-.243l-6.776-4.381A1.632,1.632,0,0,1,747.077,254.551Zm.35,10.02a.93.93,0,0,1-.347-.623l-.874-7.76a1.633,1.633,0,0,1,.041-.583l6.068,3.923.734.514a2.6,2.6,0,0,0,.226.139,3,3,0,0,1,1.053,2.287v7.071a1.7,1.7,0,0,1-1.055-.367Zm14.762-3.7a4.979,4.979,0,0,1-1.562,3.376l-5.116,4.825a1.722,1.722,0,0,1-.645.382v-7.245a2.734,2.734,0,0,1,1.085-2.174l3.75-2.821.021-.016h0l2.737-2.059a1.354,1.354,0,0,1,.014.259Z" transform="translate(-745.657 -250.207)" fill="url(#linear-gradient)"/>
  </g>
  <g id="Group_303" data-name="Group 303">
    <path id="Path_372" data-name="Path 372" d="M732.15,222.987c.126.827-.2,1.563-.732,1.644s-1.06-.525-1.185-1.353.2-1.564.732-1.644S732.024,222.159,732.15,222.987Z" transform="translate(-726.633 -217.842)" fill="url(#linear-gradient)"/>
    <path id="Path_373" data-name="Path 373" d="M739.988,230.726c.138.91-.246,1.724-.857,1.816s-1.218-.57-1.356-1.481.245-1.724.856-1.816S739.85,229.816,739.988,230.726Z" transform="translate(-729.868 -221.107)" fill="url(#linear-gradient)"/>
    <path id="Path_374" data-name="Path 374" d="M733.69,231.84c.133.881-.225,1.665-.8,1.753s-1.15-.556-1.284-1.437.225-1.665.8-1.752S733.556,230.96,733.69,231.84Z" transform="translate(-727.222 -221.604)" fill="url(#linear-gradient)"/>
    <path id="Path_375" data-name="Path 375" d="M728.1,232.949c.119.78-.206,1.477-.724,1.555s-1.034-.49-1.152-1.271.206-1.477.724-1.555S727.984,232.169,728.1,232.949Z" transform="translate(-724.916 -222.151)" fill="url(#linear-gradient)"/>
    <path id="Path_376" data-name="Path 376" d="M735.219,241.4c.121.8-.224,1.513-.772,1.6s-1.089-.5-1.21-1.3.224-1.514.772-1.6S735.1,240.6,735.219,241.4Z" transform="translate(-727.923 -225.765)" fill="url(#linear-gradient)"/>
    <path id="Path_377" data-name="Path 377" d="M742.017,222.419c-.13.316-.837.325-1.58.02s-1.239-.81-1.109-1.126.837-.325,1.58-.019S742.147,222.1,742.017,222.419Z" transform="translate(-730.537 -217.603)" fill="url(#linear-gradient)"/>
    <path id="Path_378" data-name="Path 378" d="M749.86,221.387c-.13.316-.838.326-1.58.02s-1.239-.809-1.109-1.126.838-.326,1.58-.02S749.989,221.07,749.86,221.387Z" transform="translate(-733.901 -217.161)" fill="url(#linear-gradient)"/>
    <path id="Path_379" data-name="Path 379" d="M746.341,226.258c-.167.329-.882.3-1.6-.061s-1.163-.922-1-1.251.882-.3,1.6.06S746.507,225.929,746.341,226.258Z" transform="translate(-732.426 -219.167)" fill="url(#linear-gradient)"/>
    <path id="Path_380" data-name="Path 380" d="M754.261,224.938c-.157.311-.865.268-1.581-.094s-1.17-.908-1.013-1.218.865-.269,1.582.094S754.418,224.628,754.261,224.938Z" transform="translate(-735.825 -218.611)" fill="url(#linear-gradient)"/>
    <path id="Path_381" data-name="Path 381" d="M745.618,217.983c-.123.275-.791.245-1.49-.069s-1.167-.791-1.043-1.067.79-.245,1.49.069S745.742,217.707,745.618,217.983Z" transform="translate(-732.149 -215.712)" fill="url(#linear-gradient)"/>
    <path id="Path_382" data-name="Path 382" d="M737.956,218.8c-.13.316-.837.325-1.58.02s-1.239-.81-1.109-1.126.837-.325,1.58-.019S738.086,218.482,737.956,218.8Z" transform="translate(-728.795 -216.051)" fill="url(#linear-gradient)"/>
    <path id="Path_383" data-name="Path 383" d="M741.753,244.653c-.615.656-1.336.979-1.612.721s0-1,.615-1.656,1.337-.979,1.612-.721S742.368,244,741.753,244.653Z" transform="translate(-730.849 -226.97)" fill="url(#linear-gradient)"/>
    <path id="Path_384" data-name="Path 384" d="M748.277,238.493c-.578.689-1.281,1.051-1.57.809s-.055-1,.522-1.687,1.28-1.051,1.57-.809S748.854,237.8,748.277,238.493Z" transform="translate(-733.658 -224.321)" fill="url(#linear-gradient)"/>
    <path id="Path_385" data-name="Path 385" d="M754.774,232.369c-.555.674-1.221,1.042-1.49.821s-.036-.946.518-1.621,1.222-1.042,1.49-.821S755.329,231.7,754.774,232.369Z" transform="translate(-736.484 -221.728)" fill="url(#linear-gradient)"/>
    <path id="Path_386" data-name="Path 386" d="M743.65,220.96l-6.835-5.274a3.323,3.323,0,0,0-2.328-.671l-5.024.483a2.757,2.757,0,0,0-2.28,1.679l-3.008,7.169a2.877,2.877,0,0,0,.436,2.952l5.521,6.685a2.431,2.431,0,0,0,1.881.886h0a2.435,2.435,0,0,0,.774-.127l5.438-1.823a3.429,3.429,0,0,0,1.938-1.635l4.072-7.587A2.157,2.157,0,0,0,743.65,220.96Zm-14.136-4.94,5.024-.483c.088-.009.177-.013.265-.013a2.783,2.783,0,0,1,1.692.577l6.835,5.273a1.64,1.64,0,0,1,.572.835l-5.259,1.171h0l-.221.047a3.517,3.517,0,0,1-2.947-.7l-6.993-6.335A2.234,2.234,0,0,1,729.514,216.019Zm1.022,17.63-5.52-6.685a2.354,2.354,0,0,1-.356-2.416l3.008-7.169a2.226,2.226,0,0,1,.414-.646l6.474,5.864h0l.385.357c.061.057.124.111.189.164l.125.112a1.966,1.966,0,0,1,.522,2.132l0,0-4.453,8.848A1.908,1.908,0,0,1,730.536,233.65Zm9.166-2.613a2.906,2.906,0,0,1-1.643,1.386l-5.438,1.823a1.916,1.916,0,0,1-.608.1h0c-.055,0-.11,0-.164-.009l4.308-8.534c.038-.075.071-.15.1-.227a3.047,3.047,0,0,1,2.053-1.583l.443-.1h0l5.215-1.161a1.639,1.639,0,0,1-.195.717Z" transform="translate(-723.95 -215)" fill="url(#linear-gradient)"/>
  </g>
</svg>
