<svg id="fish" xmlns="http://www.w3.org/2000/svg" xmlns:xlink="http://www.w3.org/1999/xlink" width="29.472" height="29.474" viewBox="0 0 29.472 29.474">
  <defs>
    <linearGradient id="linear-gradient" x1="0.5" x2="0.5" y2="1" gradientUnits="objectBoundingBox">
      <stop offset="0" stop-color="#7e0000"/>
      <stop offset="1" stop-color="#8e8000"/>
    </linearGradient>
  </defs>
  <path id="Path_395" data-name="Path 395" d="M122.11,2.352a5.634,5.634,0,0,1,2.117.9,20.668,20.668,0,0,1,7.351-.637c-2.51-2.835-6-3.18-9.569-1.934a.863.863,0,0,0,.1,1.666Z" transform="translate(-114.431 0)" fill="url(#linear-gradient)"/>
  <path id="Path_396" data-name="Path 396" d="M4.024,87.6a5.361,5.361,0,0,1,5.809-1.018,43.363,43.363,0,0,0,8.2,2.2c-.214-.336-.216-.338-.23-.363-.8-1.39-2.553-5-1.57-8.46a8.061,8.061,0,0,1,4.2-4.883l.374-.2a17,17,0,0,0-8.6-.712,11.819,11.819,0,0,0-5.158,1.887C.951,80.077-.794,85.544.331,90.132h0C1.651,95.506,7.167,98.87,7.4,99.011a.864.864,0,0,0,.452.123,3.854,3.854,0,0,0,2.815-1.293c.932-1.1,1.2-2.731.788-4.855a.865.865,0,0,0-1.2-.627,8.131,8.131,0,0,1-3.194.558,5.757,5.757,0,0,1-4.91-3.005A9.313,9.313,0,0,1,4.024,87.6Z" transform="translate(-0.011 -69.66)" fill="url(#linear-gradient)"/>
  <path id="Path_397" data-name="Path 397" d="M318.618,117.723c-.759-4.947-2.925-9-6.739-11.241l-1.468.8a6.408,6.408,0,0,0-3.37,3.838c-.8,2.82.7,5.9,1.4,7.112l.969,1.524a17.589,17.589,0,0,0,8.41-.979,1.26,1.26,0,0,0,.677-.458A.863.863,0,0,0,318.618,117.723ZM312.19,113.2a.863.863,0,1,1,.863-.863A.863.863,0,0,1,312.19,113.2Z" transform="translate(-289.156 -100.354)" fill="url(#linear-gradient)"/>
</svg>
