<svg xmlns="http://www.w3.org/2000/svg" xmlns:xlink="http://www.w3.org/1999/xlink" width="105.642" height="83.532" viewBox="0 0 105.642 83.532">
  <defs>
    <linearGradient id="linear-gradient" x1="0.5" x2="0.5" y2="1" gradientUnits="objectBoundingBox">
      <stop offset="0" stop-color="#bea81c"/>
      <stop offset="1" stop-color="#8a0013"/>
    </linearGradient>
  </defs>
  <g id="Laptop_SVG" data-name="Laptop SVG" transform="translate(-715 -322.309)">
    <g id="Group_368" data-name="Group 368" transform="translate(748.356 329.621)">
      <g id="Group_356" data-name="Group 356" transform="translate(2.067 12.988)">
        <g id="Group_355" data-name="Group 355">
          <path id="Path_439" data-name="Path 439" d="M742.147,337.2l-.407.407-.889-.407-.924.925.421.874-.4.4-1.481-3.207.429-.429Zm-2.425.507.717-.717-1.322-.619-.032.033Z" transform="translate(-738.472 -335.76)" fill="url(#linear-gradient)"/>
        </g>
      </g>
      <g id="Group_358" data-name="Group 358" transform="translate(7.734 9.298)">
        <g id="Group_357" data-name="Group 357">
          <path id="Path_440" data-name="Path 440" d="M745.514,335.549l-.5.288-.753-.625-1.132.655.181.954-.486.279-.6-3.482.525-.3Zm-2.474-.139.877-.506-1.115-.94-.041.023Z" transform="translate(-742.227 -333.315)" fill="url(#linear-gradient)"/>
        </g>
      </g>
      <g id="Group_360" data-name="Group 360" transform="translate(13.606 7.374)">
        <g id="Group_359" data-name="Group 359">
          <path id="Path_441" data-name="Path 441" d="M749.117,334.91l-.557.149-.566-.8-1.263.338-.072.969-.54.145.323-3.518.586-.157Zm-2.353-.773.976-.263-.833-1.2-.045.012Z" transform="translate(-746.118 -332.04)" fill="url(#linear-gradient)"/>
        </g>
      </g>
      <g id="Group_363" data-name="Group 363" transform="translate(22.372 12.436)">
        <g id="Group_361" data-name="Group 361">
          <path id="Path_442" data-name="Path 442" d="M756.346,346.3l.922-1.028a1.136,1.136,0,0,1,1.734,0l.922,1.028a2.386,2.386,0,0,0,3.633,0l.035-.039a3.113,3.113,0,0,0,.112-3.921l-2.581-2.81a19.063,19.063,0,0,1-2.828-4.035l-.012-.023a.182.182,0,0,0-.294,0l-.012.023a19.016,19.016,0,0,1-2.83,4.035l-2.579,2.81a3.113,3.113,0,0,0,.112,3.921l.035.039A2.386,2.386,0,0,0,756.346,346.3Z" transform="translate(-751.927 -335.394)" fill="url(#linear-gradient)"/>
        </g>
        <g id="Group_362" data-name="Group 362" transform="translate(4.398 9.838)">
          <path id="Path_443" data-name="Path 443" d="M756.581,341.969a.072.072,0,0,1,.14,0l.447,1.476a10.813,10.813,0,0,0,1.126,2.5l.167.276h-3.62l.168-.276a10.815,10.815,0,0,0,1.126-2.5Z" transform="translate(-754.841 -341.913)" fill="url(#linear-gradient)"/>
        </g>
      </g>
      <path id="Path_444" data-name="Path 444" d="M774.582,332.9h-5.243l-.721-2.694a1.451,1.451,0,0,0-1.775-1.025l-4.7,1.26-1.481-2.563a1.45,1.45,0,0,0-1.979-.531l-4.485,2.59L752.16,327.9a1.447,1.447,0,0,0-2.048,0l-12.587,12.585a1.45,1.45,0,0,0,0,2.048l17.416,17.416a2.863,2.863,0,0,0,1.65.457,1.353,1.353,0,0,0,.193.02h17.8a1.45,1.45,0,0,0,1.449-1.449V334.348A1.45,1.45,0,0,0,774.582,332.9Zm-7.525-2.919a.622.622,0,0,1,.761.439l.664,2.48h-11.7a1.45,1.45,0,0,0-1.449,1.449V357.4l-5.91-22.055a.621.621,0,0,1,.439-.759Zm-7.959-1.917a.623.623,0,0,1,.848.228l1.369,2.371-11.664,3.125a1.451,1.451,0,0,0-1.025,1.775l5.6,20.9-10.771-18.656a.622.622,0,0,1,.228-.848ZM738.111,341.07,750.7,328.484a.623.623,0,0,1,.878,0l1.882,1.882-10.187,5.881a1.45,1.45,0,0,0-.53,1.979l11.406,19.758-16.035-16.035A.623.623,0,0,1,738.111,341.07ZM775.2,358.976a.622.622,0,0,1-.622.62h-17.8a.622.622,0,0,1-.622-.62V334.348a.622.622,0,0,1,.622-.62h17.8a.622.622,0,0,1,.622.62Z" transform="translate(-737.102 -327.154)" fill="url(#linear-gradient)"/>
      <g id="Group_365" data-name="Group 365" transform="translate(19.561 6.968)">
        <g id="Group_364" data-name="Group 364">
          <path id="Path_445" data-name="Path 445" d="M753.168,335.087h-.576l-.341-.918h-1.307l-.32.918h-.56l1.222-3.316h.605Zm-2.074-1.357h1.013l-.5-1.372h-.047Z" transform="translate(-750.064 -331.771)" fill="url(#linear-gradient)"/>
        </g>
      </g>
      <g id="Group_367" data-name="Group 367" transform="translate(34.479 28.735)">
        <g id="Group_366" data-name="Group 366">
          <path id="Path_446" data-name="Path 446" d="M763.053,349.508h-.576l-.341-.918h-1.307l-.32.918h-.56l1.222-3.314h.605Zm-2.074-1.357h1.013l-.5-1.372h-.047Z" transform="translate(-759.949 -346.194)" fill="url(#linear-gradient)"/>
        </g>
      </g>
    </g>
    <path id="Path_447" data-name="Path 447" d="M798.005,322.309H728.158a3.848,3.848,0,0,0-3.85,3.848v40.2a3.848,3.848,0,0,0,3.85,3.848h69.847a3.848,3.848,0,0,0,3.85-3.848v-40.2A3.848,3.848,0,0,0,798.005,322.309Zm-2.019,41.363A1.326,1.326,0,0,1,794.659,365H731.5a1.325,1.325,0,0,1-1.325-1.327V328.841a1.325,1.325,0,0,1,1.325-1.327h63.157a1.326,1.326,0,0,1,1.327,1.327Z" transform="translate(4.739)" fill="url(#linear-gradient)"/>
    <path id="Path_448" data-name="Path 448" d="M820.112,382.025l-12.147-24.295a4.959,4.959,0,0,0-4.435-2.741H732.112a4.959,4.959,0,0,0-4.435,2.741L715.53,382.025a4.958,4.958,0,0,0,4.435,7.176h95.712A4.958,4.958,0,0,0,820.112,382.025Zm-40.129,2.335H755.658a1.544,1.544,0,0,1-1.5-1.9l2.694-11.453a1.543,1.543,0,0,1,1.5-1.189h18.937a1.545,1.545,0,0,1,1.5,1.189l2.694,11.453A1.544,1.544,0,0,1,779.983,384.36Z" transform="translate(0 16.64)" fill="url(#linear-gradient)"/>
  </g>
</svg>
