<svg xmlns="http://www.w3.org/2000/svg" xmlns:xlink="http://www.w3.org/1999/xlink" width="107.139" height="105.336" viewBox="0 0 107.139 105.336">
  <defs>
    <linearGradient id="linear-gradient" x1="0.5" x2="0.5" y2="1" gradientUnits="objectBoundingBox">
      <stop offset="0" stop-color="#9f9619"/>
      <stop offset="1" stop-color="#8a0013"/>
    </linearGradient>
  </defs>
  <g id="Mnagement_SVG" data-name="Mnagement SVG" transform="translate(-26.005 -37.223)">
    <path id="Path_452" data-name="Path 452" d="M274.48,47.278a10.031,10.031,0,0,0,3.063.754l-.013-.04v-.009l-.02-.053-.02-.046-.006-.007-.013-.04-.034-.073-.006-.02-.039-.092-.04-.092-.006-.02-.1-.212-.007-.006-.02-.04-.02-.046-.066-.126v-.007l-.026-.046-.027-.06-.02-.026a9.98,9.98,0,0,0-3.777-3.93l-.006.02-.014.014v.007l-.006.013-.007.02-.013.02-.007.02-.006.02-.006.014-.006.007-.007.013-.021.04-.007.02-.006.02h-.006l-.007.02-.007.014-.006.02-.013.02-.007.02-.006.014-.006.006-.007.02-.006.013-.014.02-.006.02-.006.02-.013.02-.007.013-.013.02-.006.02-.013.02v.005l-.007.014-.013.02-.007.014-.007.02-.014.02-.006.013V43.7l-.013.013-.007.02-.013.02-.007.02-.014.02-.006.013-.013.02-.006.02-.013.02-.006.013-.007.014-.008.006-.006.02-.014.02-.006.013-.013.02-.006.02H272.8l-.006.014-.007.02-.013.02-.014.02-.006.014-.007.014-.006.006-.007.02-.013.02-.02.033-.014.02-.006.014-.013.02-.033.06c-.153.251-.318.5-.49.741l-.006.013-.007.006-.013.02-.013.02-.013.02-.013.02h-.006l-.087.12-.013.02-.013.02-.013.02-.007.007-.007.007-.02.02-.013.02-.014.02-.013.02-.02.02-.014.02-.013.02-.013.02-.013.007-.007.014-.013.013-.014.02-.02.02A10.153,10.153,0,0,0,274.48,47.278Z" transform="translate(-188.505 -4.465)" fill="url(#linear-gradient)"/>
    <path id="Path_453" data-name="Path 453" d="M246.47,131.153V126.39a11.75,11.75,0,0,1-8.435-.126v5.087l3.956,3.8Z" transform="translate(-162.646 -68.302)" fill="url(#linear-gradient)"/>
    <path id="Path_454" data-name="Path 454" d="M224.07,73.911a9.949,9.949,0,0,0,9.949-9.943,9.753,9.753,0,0,0-.185-1.886,11.609,11.609,0,0,1-7.436-2.964,9.994,9.994,0,0,1-1.277,1.032,11.591,11.591,0,0,1-6.668,2.1,12,12,0,0,1-2.528-.278,12.739,12.739,0,0,1-1.5-.443,9.945,9.945,0,0,0,9.645,12.377Z" transform="translate(-144.301 -16.796)" fill="url(#linear-gradient)"/>
    <path id="Path_455" data-name="Path 455" d="M221.266,43.765a9.926,9.926,0,0,0,5.689-1.779l.053-.046A9.654,9.654,0,0,0,228.55,40.6l.006-.007.013-.013.006-.007.007-.013.013-.014.021-.013.02-.026.079-.092.02-.02.007-.014.013-.013.02-.02.02-.026h.007l.014-.02.04-.046.039-.046.014-.014.026-.033.02-.026.006-.007.014-.013.02-.027.02-.026.02-.02.021-.026.014-.02.006-.007.014-.02.02-.026.014-.013.007-.014.02-.02.02-.026v-.007l.021-.02.013-.02.02-.026.02-.026.02-.026.013-.014.006-.006.013-.026.02-.026a6.885,6.885,0,0,0,.483-.728l.034-.046V38.89l.013-.013.007-.02.006-.014.014-.02.007-.014.006-.013.014-.02.007-.013.013-.013.006-.02.006-.013.02-.034.007-.006V38.67l.014-.02.007-.014.007-.02.013-.014L230,38.59l.006-.02.013-.014.006-.02.007-.007v-.007l.014-.02.007-.014.006-.013.014-.02.034-.066.007-.013.013-.034.013-.013.047-.1v-.006l.006-.014.013-.013.007-.02.013-.027.034-.073.006-.007v-.006l.013-.033.013-.02L230.3,38l.066-.152a9.972,9.972,0,0,0-12.577,5.287,9.758,9.758,0,0,0,1.316.4A10.037,10.037,0,0,0,221.266,43.765Z" transform="translate(-147.113)" fill="url(#linear-gradient)"/>
    <path id="Path_456" data-name="Path 456" d="M228.8,155.016h5.5l-5.232-5.034Z" transform="translate(-155.565 -86.496)" fill="url(#linear-gradient)"/>
    <path id="Path_457" data-name="Path 457" d="M369.967,152.375V149.1a9.105,9.105,0,0,1-2.9.476,9.01,9.01,0,0,1-3.149-.562v3.513l2.831,2.725Z" transform="translate(-259.211 -85.754)" fill="url(#linear-gradient)"/>
    <path id="Path_458" data-name="Path 458" d="M346.427,165.236V175.6h21.718v-7.522l-9.314-4.062-.887.794-.013.014-.006.006-.007.006-.013.007-.007.006-.007.014-.013.006-.006.007-4,3.573a.814.814,0,0,1-1.131.006l-4.532-4.359Z" transform="translate(-245.792 -97.258)" fill="url(#linear-gradient)"/>
    <path id="Path_459" data-name="Path 459" d="M353.081,95.462a7.4,7.4,0,1,0-5.233-2.17A7.355,7.355,0,0,0,353.081,95.462Z" transform="translate(-245.222 -33.333)" fill="url(#linear-gradient)"/>
    <path id="Path_460" data-name="Path 460" d="M94.135,165.219l-1.76-1.125-4.532,4.359a.807.807,0,0,1-1.125-.006l-4-3.572-.013-.007-.007-.006-.013-.014-.007-.006-.007-.007-.007-.006-.013-.006-.007-.014-.893-.794-9.314,4.062V175.6H94.135v-10.38Z" transform="translate(-35.622 -97.261)" fill="url(#linear-gradient)"/>
    <path id="Path_461" data-name="Path 461" d="M263.291,149.215l-.535.483-.014.006-.006.007-.008.007-.013.006-.007.014-.006.007-.013.007-5.226,4.678h6.007Z" transform="translate(-177.549 -85.908)" fill="url(#linear-gradient)"/>
    <path id="Path_462" data-name="Path 462" d="M149.96,220.734H57.475v5.954H149.96Z" transform="translate(-24.14 -140.769)" fill="url(#linear-gradient)"/>
    <path id="Path_463" data-name="Path 463" d="M122.235,149.1v3.275l3.221,2.878,2.832-2.725v-3.513a9.036,9.036,0,0,1-3.149.562A9.151,9.151,0,0,1,122.235,149.1Z" transform="translate(-73.817 -85.754)" fill="url(#linear-gradient)"/>
    <path id="Path_464" data-name="Path 464" d="M211.41,152.749l-11.657-5.081.218,6.324a.817.817,0,0,1-.787.834l-14.4.007a.814.814,0,0,1-.814-.814l.331-6.4-11.769,5.127v10.274H211.41Z" transform="translate(-112.403 -84.686)" fill="url(#linear-gradient)"/>
    <path id="Path_465" data-name="Path 465" d="M110.344,95.462a7.409,7.409,0,1,0-5.226-2.17A7.342,7.342,0,0,0,110.344,95.462Z" transform="translate(-59.021 -33.333)" fill="url(#linear-gradient)"/>
    <path id="Path_466" data-name="Path 466" d="M119.014,269.96a4.763,4.763,0,0,0,8.454-.377l5.259,1.409.417-1.568-5.253-1.409a4.769,4.769,0,0,0-3.512-5.035l-.04-.013a4.769,4.769,0,0,0-5.524,2.613L103.1,261.373a24.248,24.248,0,0,0,.543-3.493.81.81,0,0,0-.748-.873L56.318,257a.817.817,0,0,0-.813.814l.013.113a23.6,23.6,0,0,0,.535,3.447l-15.711,4.208a4.8,4.8,0,0,0-1.946-2.123l-.053-.026a4.76,4.76,0,0,0-6.457,1.766l-.033.053a4.783,4.783,0,0,0-.589,2.765l-5.26,1.409.423,1.568,5.253-1.409a4.785,4.785,0,0,0,5.558,2.606l.026-.006a4.775,4.775,0,0,0,3.493-5.028l15.712-4.214a23.977,23.977,0,0,0,1.8,4.333l-14.091,8.137a4.773,4.773,0,0,0-8.27,1.812,4.842,4.842,0,0,0,.132,2.885l-4.711,2.719.814,1.4,4.71-2.719a4.764,4.764,0,0,0,6.034,1.085l.059-.034a4.765,4.765,0,0,0,2.045-5.748l14.091-8.137a23.351,23.351,0,0,0,2.858,3.718L50.43,283.905a4.746,4.746,0,0,0-2.746-.873,4.766,4.766,0,0,0-4.77,4.77,4.745,4.745,0,0,0,.873,2.745l-3.85,3.85,1.151,1.145,3.843-3.844a4.7,4.7,0,0,0,2.752.867,4.753,4.753,0,0,0,3.368-1.389l.06-.066a4.747,4.747,0,0,0,.469-6.053l11.5-11.511.132.126A24.771,24.771,0,0,0,66.8,276.4l-8.131,14.091a4.766,4.766,0,0,0-5.775,2.091l-.027.046a4.766,4.766,0,0,0,1.105,6l-2.719,4.717,1.4.807,2.719-4.71a4.765,4.765,0,0,0,5.736-2.025l.079-.139a4.755,4.755,0,0,0,.436-3.546,4.7,4.7,0,0,0-1.555-2.427l8.137-14.092a23.988,23.988,0,0,0,4.333,1.8l-4.214,15.712a4.764,4.764,0,0,0-4.559,7.125A4.8,4.8,0,0,0,65.9,303.8l-1.409,5.253,1.568.417,1.408-5.253a4.778,4.778,0,0,0,5.035-3.513V300.7a4.767,4.767,0,0,0-2.607-5.557l4.214-15.712a23.924,23.924,0,0,0,4.651.608v16.268a4.771,4.771,0,0,0,0,9.4v5.438h1.621v-5.438a4.716,4.716,0,0,0,2.56-1.323,4.766,4.766,0,0,0,1.4-3.374V301a4.768,4.768,0,0,0-1.39-3.36l-.053-.046a4.7,4.7,0,0,0-2.507-1.277V280.041a23.858,23.858,0,0,0,4.644-.608l4.215,15.712a4.764,4.764,0,0,0-.384,8.455l.053.027a4.764,4.764,0,0,0,2.759.6l1.409,5.253,1.575-.417-1.41-5.253a4.807,4.807,0,0,0,2.123-1.945,4.747,4.747,0,0,0,.477-3.618v-.007a4.752,4.752,0,0,0-5.035-3.506l-4.207-15.712a24.406,24.406,0,0,0,4.333-1.8l8.13,14.092a4.7,4.7,0,0,0-1.547,2.427,4.761,4.761,0,0,0,6.245,5.7l2.725,4.717,1.4-.814-2.725-4.71a4.763,4.763,0,0,0,1.085-6.034l-.034-.059a4.76,4.76,0,0,0-5.749-2.044L92.345,276.4a24.364,24.364,0,0,0,3.585-2.732l.133-.126,11.5,11.511a4.769,4.769,0,0,0,6.648,6.642l3.851,3.843,1.138-1.144-3.838-3.844a4.776,4.776,0,0,0-.528-6.119l-.06-.066a4.766,4.766,0,0,0-6.059-.463l-11.5-11.511a23.947,23.947,0,0,0,2.851-3.718l14.1,8.138a4.774,4.774,0,0,0,2.085,5.775l.047.02a4.765,4.765,0,0,0,6.006-1.1l4.711,2.719.807-1.4-4.71-2.719a4.722,4.722,0,0,0,.133-2.878,4.79,4.79,0,0,0-2.223-2.9l-.053-.026a4.757,4.757,0,0,0-5.993,1.1l-14.091-8.137a24,24,0,0,0,1.8-4.333l15.712,4.214A4.724,4.724,0,0,0,119.014,269.96Zm-53.488-3.07a.827.827,0,0,1-.734.463H63.164a.814.814,0,0,1,0-1.628h1.627A.813.813,0,0,1,65.526,266.89Zm0-4.023a.822.822,0,0,1-.734.456H63.164a.811.811,0,0,1-.728-1.164.821.821,0,0,1,.728-.457h1.627A.812.812,0,0,1,65.526,262.868Zm6.5,4.023a.819.819,0,0,1-.728.463H69.667a.814.814,0,0,1,0-1.628h1.627A.81.81,0,0,1,72.022,266.89Zm0-4.023a.813.813,0,0,1-.728.456H69.667a.81.81,0,0,1,0-1.621h1.627A.809.809,0,0,1,72.022,262.868Zm6.5,4.023a.817.817,0,0,1-.728.463H76.17a.814.814,0,0,1,0-1.628H77.8A.81.81,0,0,1,78.525,266.89Zm0-4.023a.811.811,0,0,1-.728.456H76.17a.81.81,0,0,1,0-1.621H77.8A.808.808,0,0,1,78.525,262.868Zm6.5,4.023a.817.817,0,0,1-.728.463H82.674a.814.814,0,0,1,0-1.628H84.3A.81.81,0,0,1,85.028,266.89Zm0-4.023a.812.812,0,0,1-.728.456H82.674a.81.81,0,0,1,0-1.621H84.3A.809.809,0,0,1,85.028,262.868Zm6.5,4.023a.824.824,0,0,1-.727.463H89.177a.814.814,0,1,1,0-1.628H90.8A.81.81,0,0,1,91.532,266.89Zm0-4.023a.819.819,0,0,1-.727.456H89.177a.813.813,0,0,1-.735-1.164.823.823,0,0,1,.735-.457H90.8A.808.808,0,0,1,91.532,262.868Zm5.18,4.023a.825.825,0,0,1-.727.463h-.3a.814.814,0,1,1,0-1.628h.3A.81.81,0,0,1,96.711,266.89Zm0-4.023a.82.82,0,0,1-.727.456h-.3a.812.812,0,0,1-.735-1.164.823.823,0,0,1,.735-.457h.3A.809.809,0,0,1,96.711,262.868Z" transform="translate(0 -168.588)" fill="url(#linear-gradient)"/>
  </g>
</svg>
