<svg id="Group_309" data-name="Group 309" xmlns="http://www.w3.org/2000/svg" xmlns:xlink="http://www.w3.org/1999/xlink" width="40.265" height="34.414" viewBox="0 0 40.265 34.414">
  <defs>
    <linearGradient id="linear-gradient" x1="0.5" x2="0.5" y2="1" gradientUnits="objectBoundingBox">
      <stop offset="0" stop-color="#740000"/>
      <stop offset="1" stop-color="#8e8000"/>
    </linearGradient>
  </defs>
  <path id="Path_60" data-name="Path 60" d="M267.828,245.776l-.048-.048a3.381,3.381,0,0,0-4.783,0l-.438.438a.229.229,0,0,1-.324,0l-.438-.438a3.381,3.381,0,0,0-4.783,0l-.048.048a3.382,3.382,0,0,0,0,4.783l5.41,5.409a.031.031,0,0,0,.044,0l5.409-5.409A3.381,3.381,0,0,0,267.828,245.776Z" transform="translate(-232.835 -230.179)" fill="url(#linear-gradient)"/>
  <g id="Group_118" data-name="Group 118" transform="translate(2.138 13.433)">
    <g id="Group_117" data-name="Group 117" transform="translate(0)">
      <path id="Path_61" data-name="Path 61" d="M218.049,243.994l-.422.422-.919-.422-.957.957.436.9-.409.409-1.531-3.318.443-.443Zm-2.509.524.74-.74-1.366-.64-.034.034Z" transform="translate(-214.248 -242.503)" fill="url(#linear-gradient)"/>
    </g>
  </g>
  <g id="Group_120" data-name="Group 120" transform="translate(7.999 9.618)">
    <g id="Group_119" data-name="Group 119" transform="translate(0)">
      <path id="Path_62" data-name="Path 62" d="M229.292,237.231l-.516.3-.779-.645-1.171.676.187.986-.5.289-.619-3.6.543-.313Zm-2.558-.143.906-.523-1.154-.972-.041.024Z" transform="translate(-225.892 -234.922)" fill="url(#linear-gradient)"/>
    </g>
  </g>
  <g id="Group_122" data-name="Group 122" transform="translate(14.073 7.627)">
    <g id="Group_121" data-name="Group 121">
      <path id="Path_63" data-name="Path 63" d="M241.062,233.936l-.576.154-.585-.825-1.307.35-.075,1-.559.15.334-3.639.605-.162Zm-2.434-.8,1.011-.271-.863-1.237-.046.012Z" transform="translate(-237.961 -230.966)" fill="url(#linear-gradient)"/>
    </g>
  </g>
  <path id="Path_64" data-name="Path 64" d="M248.767,221.756h-5.424l-.746-2.786a1.5,1.5,0,0,0-1.835-1.059l-4.862,1.3-1.531-2.651a1.5,1.5,0,0,0-2.047-.549l-4.639,2.679-2.108-2.108a1.5,1.5,0,0,0-2.119,0L210.438,229.6a1.5,1.5,0,0,0,0,2.119l18.013,18.013a2.965,2.965,0,0,0,1.706.474,1.472,1.472,0,0,0,.2.02h18.41a1.5,1.5,0,0,0,1.5-1.5V223.255A1.5,1.5,0,0,0,248.767,221.756Zm-7.784-3.019a.644.644,0,0,1,.787.454l.687,2.565h-12.1a1.5,1.5,0,0,0-1.5,1.5V247.1l-6.112-22.811a.643.643,0,0,1,.454-.786Zm-8.232-1.982a.643.643,0,0,1,.877.235l1.416,2.452-12.065,3.232a1.5,1.5,0,0,0-1.059,1.836l5.794,21.623-11.141-19.3a.643.643,0,0,1,.235-.877Zm-21.708,13.451,13.018-13.017a.643.643,0,0,1,.908,0l1.946,1.946-10.536,6.083a1.5,1.5,0,0,0-.549,2.046l11.8,20.435-16.586-16.585A.644.644,0,0,1,211.043,230.207Zm38.366,18.522a.643.643,0,0,1-.642.642h-18.41a.643.643,0,0,1-.642-.642V223.255a.643.643,0,0,1,.642-.642h18.41a.643.643,0,0,1,.642.642Z" transform="translate(-210 -215.813)" fill="url(#linear-gradient)"/>
  <g id="Group_124" data-name="Group 124" transform="translate(20.232 7.208)">
    <g id="Group_123" data-name="Group 123" transform="translate(0)">
      <path id="Path_65" data-name="Path 65" d="M253.409,233.562h-.6l-.351-.948h-1.353l-.331.948H250.2l1.264-3.428h.627Zm-2.144-1.4h1.046l-.513-1.418h-.048Z" transform="translate(-250.198 -230.134)" fill="url(#linear-gradient)"/>
    </g>
  </g>
  <g id="Group_126" data-name="Group 126" transform="translate(35.663 29.72)">
    <g id="Group_125" data-name="Group 125" transform="translate(0)">
      <path id="Path_66" data-name="Path 66" d="M284.067,278.291h-.6l-.351-.948h-1.353l-.331.948h-.579l1.264-3.429h.627Zm-2.144-1.4h1.046l-.513-1.418h-.048Z" transform="translate(-280.856 -274.862)" fill="url(#linear-gradient)"/>
    </g>
  </g>
</svg>
