<svg id="Group_310" data-name="Group 310" xmlns="http://www.w3.org/2000/svg" xmlns:xlink="http://www.w3.org/1999/xlink" width="34.904" height="22" viewBox="0 0 34.904 22">
  <defs>
    <linearGradient id="linear-gradient" x1="0.5" x2="0.5" y2="1" gradientUnits="objectBoundingBox">
      <stop offset="0" stop-color="#6e0000"/>
      <stop offset="1" stop-color="#8e8000"/>
    </linearGradient>
  </defs>
  <path id="Path_12" data-name="Path 12" d="M527.466,124.788c-9.616,0-17.44,3.738-17.44,8.332s7.824,8.332,17.44,8.332,17.44-3.738,17.44-8.332S537.083,124.788,527.466,124.788ZM537,139.355l-1.644-1.361a.221.221,0,0,0-.2-.042l-2.476.683a.221.221,0,0,0-.082.383l.883.731a.442.442,0,0,1-.2.776,31.9,31.9,0,0,1-3.615.435.443.443,0,0,1-.469-.442v-1.157a.221.221,0,0,0-.22-.221h-3.017a.221.221,0,0,0-.221.221v1.157a.443.443,0,0,1-.469.442,31.9,31.9,0,0,1-3.615-.435.442.442,0,0,1-.2-.776l.884-.731a.221.221,0,0,0-.082-.383l-2.476-.683a.221.221,0,0,0-.2.042l-1.644,1.361a.445.445,0,0,1-.433.076,17.9,17.9,0,0,1-2.524-1.126.442.442,0,0,1,.1-.814l1.933-.533a.221.221,0,0,0,.082-.383l-1.314-1.087a.221.221,0,0,0-.2-.043l-2.967.818a.438.438,0,0,1-.447-.13,5.418,5.418,0,0,1-.981-1.585.443.443,0,0,1,.413-.6h3.048a.22.22,0,0,0,.221-.221v-1.211a.22.22,0,0,0-.221-.221h-3.048a.443.443,0,0,1-.413-.6,5.413,5.413,0,0,1,.981-1.585.438.438,0,0,1,.447-.13l2.967.818a.221.221,0,0,0,.2-.043l1.314-1.087a.221.221,0,0,0-.082-.383l-1.933-.533a.442.442,0,0,1-.1-.814,17.871,17.871,0,0,1,2.524-1.126.445.445,0,0,1,.433.076l1.644,1.36a.22.22,0,0,0,.2.043l2.476-.683a.221.221,0,0,0,.082-.383l-.884-.732a.442.442,0,0,1,.2-.776,31.9,31.9,0,0,1,3.615-.435.443.443,0,0,1,.469.442v1.157a.221.221,0,0,0,.221.221h3.017a.221.221,0,0,0,.22-.221v-1.157a.443.443,0,0,1,.469-.442,31.9,31.9,0,0,1,3.615.435.442.442,0,0,1,.2.776l-.883.732a.221.221,0,0,0,.082.383l2.476.683a.22.22,0,0,0,.2-.043l1.644-1.36a.445.445,0,0,1,.433-.076,17.872,17.872,0,0,1,2.524,1.126.442.442,0,0,1-.1.814l-1.933.533a.221.221,0,0,0-.082.383l1.314,1.087a.221.221,0,0,0,.2.043l2.967-.818a.438.438,0,0,1,.447.13,5.413,5.413,0,0,1,.981,1.585.443.443,0,0,1-.413.6H540.29a.221.221,0,0,0-.221.221v1.211a.221.221,0,0,0,.221.221h3.048a.443.443,0,0,1,.413.6,5.418,5.418,0,0,1-.981,1.585.438.438,0,0,1-.447.13l-2.967-.818a.221.221,0,0,0-.2.043l-1.314,1.087a.221.221,0,0,0,.082.383l1.933.533a.442.442,0,0,1,.1.814,17.922,17.922,0,0,1-2.524,1.126A.445.445,0,0,1,537,139.355Z" transform="translate(-510.015 -124.788)" fill="url(#linear-gradient)"/>
  <path id="Path_13" data-name="Path 13" d="M544.852,144.178a4.042,4.042,0,0,1,.04.535c0,4.594-7.824,8.332-17.44,8.332s-17.44-3.738-17.44-8.332a3.971,3.971,0,0,1,.04-.535H510v5.3c1.156,4.653,8.526,8.242,17.452,8.242s16.3-3.589,17.452-8.242v-5.3Z" transform="translate(-510 -135.718)" fill="url(#linear-gradient)"/>
  <ellipse id="Ellipse_33" data-name="Ellipse 33" cx="4.489" cy="2.041" rx="4.489" ry="2.041" transform="translate(12.963 6.291)" fill="url(#linear-gradient)"/>
  <rect id="Rectangle_2" data-name="Rectangle 2" width="1.325" height="5.524" rx="0.662" transform="translate(16.789 3.014)" fill="url(#linear-gradient)"/>
  <path id="Path_14" data-name="Path 14" d="M548.841,134.562l-3.151-1.052,1.589-.885-.323-.579-2.083,1.161-2.083-1.161-.322.579,1.589.885-3.151,1.052.21.628,3.759-1.255,3.758,1.255Z" transform="translate(-527.421 -128.879)" fill="url(#linear-gradient)"/>
  <circle id="Ellipse_34" data-name="Ellipse 34" cx="0.486" cy="0.486" r="0.486" transform="translate(14.719 2.975)" fill="url(#linear-gradient)"/>
  <circle id="Ellipse_35" data-name="Ellipse 35" cx="0.669" cy="0.669" r="0.669" transform="translate(12.932 5.365)" fill="url(#linear-gradient)"/>
  <circle id="Ellipse_36" data-name="Ellipse 36" cx="0.486" cy="0.486" r="0.486" transform="translate(19.213 2.975)" fill="url(#linear-gradient)"/>
  <path id="Path_15" data-name="Path 15" d="M557.295,137.753a.668.668,0,1,0,.668-.669A.668.668,0,0,0,557.295,137.753Z" transform="translate(-536.661 -131.719)" fill="url(#linear-gradient)"/>
</svg>
