<svg id="Group_13" data-name="Group 13" xmlns="http://www.w3.org/2000/svg" xmlns:xlink="http://www.w3.org/1999/xlink" width="37.699" height="33.709" viewBox="0 0 37.699 33.709">
  <defs>
    <linearGradient id="linear-gradient" x1="0.5" x2="0.5" y2="1" gradientUnits="objectBoundingBox">
      <stop offset="0" stop-color="#8e8000"/>
      <stop offset="1" stop-color="#8a0013"/>
    </linearGradient>
  </defs>
  <path id="Path_387" data-name="Path 387" d="M327.509,541.561a8.787,8.787,0,0,0-1.527-1.03v-1.835a2.347,2.347,0,0,1,.423.091,1.047,1.047,0,0,1,.38.213.953.953,0,0,1,.239.34,1.871,1.871,0,0,1,.123.515l.012.111h.423v-1.419l-.087-.028c-.536-.169-.845-.26-.947-.281s-.194-.032-.307-.047c-.08-.01-.166-.019-.258-.025v-.378h-.559v.383a2.351,2.351,0,0,0-1.228.465,1.239,1.239,0,0,0-.483.961,1.256,1.256,0,0,0,.286.825,2.7,2.7,0,0,0,.568.487,8.879,8.879,0,0,0,.856.5v2.14a1.694,1.694,0,0,1-.884-.306,1.054,1.054,0,0,1-.368-.763l-.01-.113h-.455v1.352l.083.029c.159.057.313.1.458.142s.288.069.429.095.28.045.422.06c.1.011.213.019.325.023v.52h.559v-.527a2.469,2.469,0,0,0,1.361-.505,1.373,1.373,0,0,0,.555-1.075A1.252,1.252,0,0,0,327.509,541.561Zm-.633,1.121a.713.713,0,0,1-.136.418,1.058,1.058,0,0,1-.38.327,1.616,1.616,0,0,1-.379.111v-1.814a2.849,2.849,0,0,1,.728.533A.674.674,0,0,1,326.876,542.682ZM324.9,539.8a.733.733,0,0,1-.141-.229.7.7,0,0,1-.043-.24.544.544,0,0,1,.19-.426,1.006,1.006,0,0,1,.516-.207v1.513c-.093-.057-.176-.111-.247-.164A1.7,1.7,0,0,1,324.9,539.8Z" transform="translate(-319.017 -527.511)" fill="url(#linear-gradient)"/>
  <g id="Group_305" data-name="Group 305" transform="translate(13.396 10.278)">
    <path id="Path_388" data-name="Path 388" d="M342.15,540.53v-1.835a2.347,2.347,0,0,1,.423.091,1.047,1.047,0,0,1,.38.213.945.945,0,0,1,.238.34,1.833,1.833,0,0,1,.123.515l.012.111h.423v-1.419l-.087-.028c-.536-.169-.845-.26-.947-.281s-.194-.032-.307-.047c-.08-.01-.166-.019-.258-.025v-.378h-.559v.383a2.351,2.351,0,0,0-1.228.465,1.239,1.239,0,0,0-.483.961,1.256,1.256,0,0,0,.286.825,2.714,2.714,0,0,0,.568.487,8.89,8.89,0,0,0,.857.5v2.14a1.692,1.692,0,0,1-.884-.306,1.054,1.054,0,0,1-.368-.763l-.011-.113h-.454v1.352l.083.029c.159.057.313.1.458.142s.288.069.429.095.28.045.422.06c.1.011.213.019.325.023v.52h.559v-.527a2.469,2.469,0,0,0,1.361-.505,1.373,1.373,0,0,0,.555-1.075,1.252,1.252,0,0,0-.389-.921A8.785,8.785,0,0,0,342.15,540.53Zm.894,2.152a.71.71,0,0,1-.136.418,1.051,1.051,0,0,1-.379.327,1.615,1.615,0,0,1-.379.111v-1.814a2.85,2.85,0,0,1,.728.533A.677.677,0,0,1,343.044,542.682Zm-1.976-2.878a.733.733,0,0,1-.141-.229.7.7,0,0,1-.043-.24.544.544,0,0,1,.19-.426,1.006,1.006,0,0,1,.516-.207v1.513c-.093-.057-.176-.111-.247-.164A1.7,1.7,0,0,1,341.068,539.8Z" transform="translate(-339.874 -537.789)" fill="url(#linear-gradient)"/>
    <path id="Path_389" data-name="Path 389" d="M359.845,541.561a8.786,8.786,0,0,0-1.527-1.03v-1.835a2.347,2.347,0,0,1,.423.091,1.051,1.051,0,0,1,.38.213.945.945,0,0,1,.238.34,1.854,1.854,0,0,1,.123.515l.012.111h.423v-1.419l-.087-.028c-.537-.169-.845-.26-.947-.281s-.194-.032-.307-.047c-.08-.01-.166-.019-.258-.025v-.378h-.559v.383a2.349,2.349,0,0,0-1.228.465,1.239,1.239,0,0,0-.483.961,1.259,1.259,0,0,0,.286.825,2.733,2.733,0,0,0,.568.487,8.887,8.887,0,0,0,.857.5v2.14a1.692,1.692,0,0,1-.884-.306,1.052,1.052,0,0,1-.368-.763l-.011-.113h-.454v1.352l.083.029c.158.057.313.1.458.142s.288.069.429.095.28.045.422.06c.1.011.213.019.325.023v.52h.559v-.527a2.469,2.469,0,0,0,1.361-.505,1.373,1.373,0,0,0,.554-1.075A1.251,1.251,0,0,0,359.845,541.561Zm-.634,1.121a.709.709,0,0,1-.136.418,1.056,1.056,0,0,1-.379.327,1.623,1.623,0,0,1-.379.111v-1.814a2.861,2.861,0,0,1,.728.533A.677.677,0,0,1,359.211,542.682Zm-1.976-2.878a.74.74,0,0,1-.141-.229.7.7,0,0,1-.043-.24.542.542,0,0,1,.19-.426,1.006,1.006,0,0,1,.517-.207v1.513c-.093-.057-.176-.111-.247-.164A1.708,1.708,0,0,1,357.235,539.8Z" transform="translate(-347.335 -537.789)" fill="url(#linear-gradient)"/>
  </g>
  <g id="Group_306" data-name="Group 306" transform="translate(12.062 8.918)">
    <path id="Path_390" data-name="Path 390" d="M342.384,544.784h-3.116a1.875,1.875,0,0,1-1.873-1.873v-5.775a1.875,1.875,0,0,1,1.873-1.873h3.116a1.875,1.875,0,0,1,1.873,1.873v5.775A1.875,1.875,0,0,1,342.384,544.784Zm-3.116-8.774a1.127,1.127,0,0,0-1.126,1.126v5.775a1.127,1.127,0,0,0,1.126,1.126h3.116a1.127,1.127,0,0,0,1.126-1.126v-5.775a1.127,1.127,0,0,0-1.126-1.126Z" transform="translate(-337.396 -535.264)" fill="url(#linear-gradient)"/>
  </g>
  <g id="Group_307" data-name="Group 307" transform="translate(20.769 8.918)">
    <path id="Path_391" data-name="Path 391" d="M358.552,544.784h-3.116a1.875,1.875,0,0,1-1.873-1.873v-5.775a1.875,1.875,0,0,1,1.873-1.873h3.116a1.875,1.875,0,0,1,1.873,1.873v5.775A1.875,1.875,0,0,1,358.552,544.784Zm-3.116-8.774a1.127,1.127,0,0,0-1.126,1.126v5.775a1.127,1.127,0,0,0,1.126,1.126h3.116a1.127,1.127,0,0,0,1.126-1.126v-5.775a1.127,1.127,0,0,0-1.126-1.126Z" transform="translate(-353.564 -535.264)" fill="url(#linear-gradient)"/>
  </g>
  <g id="Group_308" data-name="Group 308" transform="translate(3.355 8.918)">
    <path id="Path_392" data-name="Path 392" d="M326.217,544.784H323.1a1.874,1.874,0,0,1-1.872-1.873v-5.775a1.874,1.874,0,0,1,1.872-1.873h3.116a1.875,1.875,0,0,1,1.873,1.873v5.775A1.875,1.875,0,0,1,326.217,544.784ZM323.1,536.01a1.127,1.127,0,0,0-1.126,1.126v5.775a1.127,1.127,0,0,0,1.126,1.126h3.116a1.127,1.127,0,0,0,1.126-1.126v-5.775a1.127,1.127,0,0,0-1.126-1.126Z" transform="translate(-321.229 -535.264)" fill="url(#linear-gradient)"/>
  </g>
  <path id="Path_393" data-name="Path 393" d="M350.817,530.925a1.881,1.881,0,0,0-.671,3.639V545.51a.5.5,0,0,1-.5.5h-1.27v-1.493a1.244,1.244,0,0,0-1.244-1.243h-.943V527.793A2.489,2.489,0,0,0,343.7,525.3h-7.142v-1a5.6,5.6,0,0,0-5.6-5.6h-.944a5.6,5.6,0,0,0-5.6,5.6v1h-6.936A2.488,2.488,0,0,0,315,527.793v24.123a.5.5,0,0,0,.5.5h30.2a.5.5,0,0,0,.5-.5v-1.057h.943a1.244,1.244,0,0,0,1.244-1.244v-1.493h2.063a1.047,1.047,0,0,0,1.047-1.047V534.564a1.881,1.881,0,0,0-.671-3.639Zm-18.948-9.8h.676l1.106,1.7q.076.115.14.228h.008a3.038,3.038,0,0,1-.015-.383v-1.541h.592v2.787h-.633l-1.149-1.751a2.576,2.576,0,0,1-.14-.231h-.008q.015.148.015.451v1.532h-.592Zm-1.495,2.3h.233v-1.815h-.233v-.486h1.094v.486h-.233v1.815h.233v.486h-1.094Zm-3.364-2.3.393,1.856a2.217,2.217,0,0,1,.037.319h.012a1.524,1.524,0,0,1,.056-.326l.506-1.848h.672l.457,1.872a2.237,2.237,0,0,1,.045.3h.008a1.948,1.948,0,0,1,.041-.311l.385-1.86h.634l-.737,2.787h-.7l-.463-1.788a1.5,1.5,0,0,1-.045-.313h-.008a1.922,1.922,0,0,1-.051.313l-.475,1.788h-.725l-.732-2.787Zm7.063,29.862a.5.5,0,0,1-.5.5h-6.167a.5.5,0,0,1-.5-.5v-1.43a3.545,3.545,0,0,1,3.545-3.545h.072a3.545,3.545,0,0,1,3.545,3.545Zm7.806-7.518a.7.7,0,0,1-.7.7h-.015a.7.7,0,0,1-.7-.7v-2.743a.7.7,0,0,1,.7-.7h.015a.7.7,0,0,1,.7.7Zm2.456-6.912a1.042,1.042,0,0,1-1.025,1.058H317.674a1.042,1.042,0,0,1-1.025-1.058v-8.34a1.042,1.042,0,0,1,1.025-1.058H343.31a1.042,1.042,0,0,1,1.025,1.058Z" transform="translate(-315 -518.705)" fill="url(#linear-gradient)"/>
</svg>
