<svg id="spider-arthropod-animal-silhouette" xmlns="http://www.w3.org/2000/svg" xmlns:xlink="http://www.w3.org/1999/xlink" width="31.237" height="47.131" viewBox="0 0 31.237 47.131">
  <defs>
    <linearGradient id="linear-gradient" x1="0.5" x2="0.5" y2="1" gradientUnits="objectBoundingBox">
      <stop offset="0" stop-color="#920000"/>
      <stop offset="1" stop-color="#8e8000"/>
    </linearGradient>
  </defs>
  <g id="Group_370" data-name="Group 370">
    <path id="Path_394" data-name="Path 394" d="M112.813,23.7l-.525,0a.512.512,0,0,0-.432.225l-.744.707a.531.531,0,0,0-.14.219l-2.166,1.762a1.65,1.65,0,0,0-.986-.286,3.949,3.949,0,0,0-.51.038,8.355,8.355,0,0,1-3.554-.212c-.082-.024-.418-.145-.807-.285A16.783,16.783,0,0,0,100.315,25a.356.356,0,0,0-.324.219l-.047.129a.325.325,0,0,0,.2.417l2.686.957a.684.684,0,0,0,.083.466c.212.359.72.519,1.648.519l.164,0a.53.53,0,0,0,.08.015,4.3,4.3,0,0,0,.653,0c.361-.019.734-.009,1.1,0,.483.01.935.02,1.469,0a3.139,3.139,0,0,0,1.691-.412c-.147.188-.291.376-.431.56-.182.239-.363.476-.543.7-.809,1.008-1.493,1.935-2.091,2.834-.1.146-.188.311-.276.47a3.382,3.382,0,0,1-.467.709,1.335,1.335,0,0,1-.229.171,1.1,1.1,0,0,0-.565.723,1.935,1.935,0,0,0,.337,1.316c.053.1.1.191.146.283.147.317.287.639.427.96.1.224.2.449.3.671l.674,1.5q.547,1.217,1.092,2.434c.112.25.213.527.321.82a5.283,5.283,0,0,0,1.244,2.223c1.379,1.194,2.832,2.333,4.32,3.386a.325.325,0,0,0,.408-.5c-.421-.388-.884-.738-1.333-1.076-.242-.182-.484-.364-.718-.552a7.271,7.271,0,0,1-1.494-1.621l0-.008a.324.324,0,0,0,.012-.261q-.177-.456-.349-.91c-.536-1.4-1.091-2.855-1.788-4.25-.468-.936-.93-1.9-1.377-2.827q-.258-.536-.516-1.072a8.453,8.453,0,0,1,1.42-2.733c.456-.664.965-1.315,1.456-1.944l.253-.324q.154-.2.311-.392a5.04,5.04,0,0,0,.756,4.025,4.322,4.322,0,0,0,2.553,1.719,7.355,7.355,0,0,0,1.9.259h.14a7.353,7.353,0,0,0,1.9-.259,4.324,4.324,0,0,0,2.554-1.719,5.04,5.04,0,0,0,.755-4.025q.158.2.311.392l.253.324c.492.629,1,1.279,1.456,1.944a8.453,8.453,0,0,1,1.42,2.733q-.259.536-.516,1.072c-.447.93-.909,1.891-1.377,2.827-.7,1.395-1.252,2.846-1.788,4.25q-.173.455-.35.91a.325.325,0,0,0,.012.261l0,.008a7.273,7.273,0,0,1-1.494,1.621c-.234.188-.476.37-.718.552-.449.338-.912.687-1.333,1.076a.324.324,0,0,0,.408.5c1.487-1.053,2.941-2.192,4.32-3.386a5.288,5.288,0,0,0,1.244-2.223c.108-.293.209-.571.321-.82q.544-1.218,1.091-2.434l.674-1.5c.1-.223.2-.447.3-.671.14-.321.28-.643.427-.96.042-.092.094-.186.146-.283a1.937,1.937,0,0,0,.337-1.316,1.1,1.1,0,0,0-.565-.723,1.324,1.324,0,0,1-.229-.171,3.35,3.35,0,0,1-.467-.709c-.088-.159-.178-.323-.276-.47-.6-.9-1.282-1.825-2.091-2.834-.18-.225-.361-.461-.543-.7-.14-.184-.283-.372-.431-.56a3.182,3.182,0,0,0,1.714.414c.481.021.963.012,1.446,0,.366-.007.734-.017,1.1,0a4.24,4.24,0,0,0,.655,0,.442.442,0,0,0,.078-.015l.164,0c.927,0,1.436-.16,1.648-.519a.681.681,0,0,0,.083-.466l2.686-.957a.325.325,0,0,0,.2-.417l-.047-.13A.355.355,0,0,0,130.77,25a16.812,16.812,0,0,0-2.634.861c-.389.14-.726.261-.807.285a8.356,8.356,0,0,1-3.554.212,3.947,3.947,0,0,0-.509-.038,1.65,1.65,0,0,0-.986.286l-2.166-1.762a.535.535,0,0,0-.14-.219l-.744-.707a.515.515,0,0,0-.437-.225l-.52,0v0c0-.217-.008-.434-.014-.652l.136-.033a1.072,1.072,0,0,0,.312-.1l.155-.081c1.868-.982,3.8-2,5.688-3.015.388-.209.76-.449,1.121-.682a.526.526,0,0,0,.289-.069,1.584,1.584,0,0,0,.9-.9c.207-.433.4-.879.586-1.311q.138-.321.278-.64a.521.521,0,0,0,.032-.346,5.666,5.666,0,0,1,.8-1.43c.124-.184.229-.339.288-.44a6.406,6.406,0,0,0,.672-3.5v-.249a.359.359,0,0,0-.124-.229.4.4,0,0,0-.259-.095c-.32,0-.33.113-.428,1.2-.021.232-.047.521-.056.571a3.422,3.422,0,0,1-.431.924l-.1.178c-.242.419-.509.845-.793,1.3a14.88,14.88,0,0,0-2.043,4.113,9.229,9.229,0,0,1-.847.383c-.141.058-.252.1-.3.129l-4.218,2.108c.155-.2.31-.411.457-.624.492-.716.976-1.453,1.445-2.164.4-.612.805-1.223,1.216-1.829a9.129,9.129,0,0,1,.707-.86c.853-.962,1.915-2.158,1.207-3.555a.549.549,0,0,0-.061-.1c-.014-.117-.032-.225-.054-.326-.3-1.4-.637-2.9-1.033-4.575a6.257,6.257,0,0,0-1.566-3.933l-.038-.054c-.441-.631-.893-1.255-1.346-1.88l-.571-.79a.324.324,0,0,0-.545.351l.545.943c.43.742.859,1.482,1.277,2.229.088.156.184.313.281.469.061.1.121.2.18.295a.659.659,0,0,0,.078.136,2.538,2.538,0,0,1,.319.789c.385,2.128.715,4.3,1.035,6.407q.128.841.257,1.682a4.792,4.792,0,0,0-.728,1.007c-.084.139-.158.263-.22.349L121.3,16.8q-1.488,2.072-2.963,4.152a2.586,2.586,0,0,0-.267.493,1.417,1.417,0,0,0-.563-.716c-.1-.064-.125-.1-.128-.276a1.185,1.185,0,0,0-1.37-1.25.324.324,0,0,0-.249.438l.209.535-.442-.017-.415.017.209-.535a.324.324,0,0,0-.249-.438,1.185,1.185,0,0,0-1.37,1.25c0,.177-.028.212-.127.276a1.415,1.415,0,0,0-.564.716,2.626,2.626,0,0,0-.266-.493q-1.473-2.082-2.963-4.153l-1.448-2.015c-.062-.086-.136-.21-.22-.349a4.793,4.793,0,0,0-.728-1.007q.129-.841.257-1.682c.319-2.1.65-4.28,1.035-6.407a2.5,2.5,0,0,1,.3-.763l.035-.051a.518.518,0,0,0,.061-.112c.058-.1.119-.2.179-.294.1-.156.193-.312.281-.469.418-.747.847-1.487,1.277-2.229l.545-.943a.324.324,0,0,0-.545-.351l-.571.79c-.453.626-.905,1.249-1.346,1.88l-.038.054a6.253,6.253,0,0,0-1.566,3.933c-.4,1.674-.734,3.171-1.033,4.575-.021.1-.039.208-.054.326a.569.569,0,0,0-.061.1c-.708,1.4.354,2.593,1.207,3.555a9.119,9.119,0,0,1,.707.86c.411.606.814,1.218,1.216,1.829.469.712.953,1.449,1.445,2.164.146.213.3.422.457.624l-4.218-2.108c-.048-.024-.16-.071-.3-.129a9.156,9.156,0,0,1-.847-.383,14.887,14.887,0,0,0-2.043-4.113c-.284-.451-.552-.876-.793-1.3l-.1-.178a3.429,3.429,0,0,1-.429-.917c-.011-.056-.037-.345-.058-.577-.1-1.083-.108-1.2-.428-1.2H101.9a.325.325,0,0,0-.325.325v.249a6.4,6.4,0,0,0,.672,3.5c.058.1.163.256.288.44a6.01,6.01,0,0,1,.8,1.415.537.537,0,0,0,.029.362c.094.213.186.426.278.64.186.432.378.878.586,1.311a1.582,1.582,0,0,0,.9.905.522.522,0,0,0,.289.069c.36.233.733.473,1.121.682,1.889,1.019,3.82,2.034,5.688,3.015l.155.081a1.016,1.016,0,0,0,.295.1l.153.037c-.006.217-.01.434-.014.651v0h0Z" transform="translate(-99.924 0.002)" fill="url(#linear-gradient)"/>
  </g>
</svg>
