<svg xmlns="http://www.w3.org/2000/svg" xmlns:xlink="http://www.w3.org/1999/xlink" width="95" height="95.004" viewBox="0 0 95 95.004">
  <defs>
    <linearGradient id="linear-gradient" x1="0.5" x2="0.5" y2="1" gradientUnits="objectBoundingBox">
      <stop offset="0" stop-color="#8a0013"/>
      <stop offset="1" stop-color="#9c9c18"/>
    </linearGradient>
  </defs>
  <g id="Tech_Support_SVG" data-name="Tech Support SVG" transform="translate(-1.578 -1.513)">
    <path id="Path_449" data-name="Path 449" d="M94.939,47.361A1.639,1.639,0,0,0,93.3,49a44.317,44.317,0,1,1-4.884-20.126l-4.687-1.246a1.693,1.693,0,0,0-.852,3.278l8.391,2.229h.426a1.606,1.606,0,0,0,.819-.229,1.639,1.639,0,0,0,.754-.983l2.2-8.162a1.693,1.693,0,0,0-3.278-.852l-1.016,4.1A47.5,47.5,0,1,0,96.578,49a1.639,1.639,0,0,0-1.639-1.639Z" transform="translate(0 0)" fill="url(#linear-gradient)"/>
    <path id="Path_450" data-name="Path 450" d="M25.153,23.943a14.75,14.75,0,0,0,1.049-1.9,8.523,8.523,0,0,0,.557-1.672,7.179,7.179,0,0,0,0-1.475,8.359,8.359,0,0,0-.623-3.278,7.67,7.67,0,0,0-1.77-2.59,8.162,8.162,0,0,0-2.721-1.7,9.834,9.834,0,0,0-3.54-.623,8.49,8.49,0,0,0-3.278.623A8.391,8.391,0,0,0,12.14,13.06a8.49,8.49,0,0,0-1.868,2.655,8.391,8.391,0,0,0-.721,3.278h3.442a5.474,5.474,0,0,1,.459-2.1,4.622,4.622,0,0,1,1.082-1.541,4.556,4.556,0,0,1,1.573-.918,5.867,5.867,0,0,1,3.933,0,4.917,4.917,0,0,1,1.606.983A4.655,4.655,0,0,1,22.694,16.9a4.327,4.327,0,0,1,.393,1.8,5.081,5.081,0,0,1-.328,1.77,9.08,9.08,0,0,1-.819,1.639,15.7,15.7,0,0,1-1.049,1.508L19.81,24.926l-10,12.587v2.819H26.89V37.054H14.3l9.08-10.817a20.748,20.748,0,0,0,1.77-2.295Z" transform="translate(18.16 20.927)" fill="url(#linear-gradient)"/>
    <path id="Path_451" data-name="Path 451" d="M36.249,31.543V28.233H31.922V23.185l-3.77.262v4.786H20.712L30.545,10.86h-4.1L16.123,28.528l-.033,3.016H28.153v5.113H25.334v3.311h9.473V36.657H31.922V31.543Z" transform="translate(33.057 21.291)" fill="url(#linear-gradient)"/>
  </g>
</svg>
