<svg id="Group_369" data-name="Group 369" xmlns="http://www.w3.org/2000/svg" xmlns:xlink="http://www.w3.org/1999/xlink" width="37.631" height="37.631" viewBox="0 0 37.631 37.631">
  <defs>
    <linearGradient id="linear-gradient" x1="0.5" x2="0.5" y2="1" gradientUnits="objectBoundingBox">
      <stop offset="0" stop-color="#800"/>
      <stop offset="1" stop-color="#8e8000"/>
    </linearGradient>
  </defs>
  <path id="Path_197" data-name="Path 197" d="M120.511,420.511a18.816,18.816,0,1,0,26.61,0A18.816,18.816,0,0,0,120.511,420.511ZM145.83,445.83a16.991,16.991,0,1,1,0-24.029A16.991,16.991,0,0,1,145.83,445.83Z" transform="translate(-115 -415)" fill="url(#linear-gradient)"/>
  <path id="Path_198" data-name="Path 198" d="M129.682,428.935l-.747.747a.793.793,0,0,1-1.12,0l-.538-.539a.4.4,0,0,1-.069-.468l.006-.012a3.57,3.57,0,0,1,1.449-1.449l.012-.006a.4.4,0,0,1,.468.069l.539.538A.793.793,0,0,1,129.682,428.935Z" transform="translate(-120.623 -420.623)" fill="url(#linear-gradient)"/>
  <path id="Path_199" data-name="Path 199" d="M125.289,434.521l-.528.914a.792.792,0,0,1-1.082.29l-.66-.381a.4.4,0,0,1-.188-.434l0-.013a3.565,3.565,0,0,1,1.025-1.775l.01-.01a.4.4,0,0,1,.47-.055l.66.381A.793.793,0,0,1,125.289,434.521Z" transform="translate(-118.617 -423.326)" fill="url(#linear-gradient)"/>
  <path id="Path_200" data-name="Path 200" d="M122.557,441.138l-.273,1.02a.793.793,0,0,1-.97.56l-.736-.2a.4.4,0,0,1-.294-.371v-.013a3.563,3.563,0,0,1,.531-1.98l.007-.011a.4.4,0,0,1,.44-.175l.735.2A.792.792,0,0,1,122.557,441.138Z" transform="translate(-117.442 -426.54)" fill="url(#linear-gradient)"/>
  <path id="Path_201" data-name="Path 201" d="M121.555,448.336v1.057a.792.792,0,0,1-.792.792H120a.4.4,0,0,1-.379-.282l0-.013a3.566,3.566,0,0,1,0-2.049l0-.013a.4.4,0,0,1,.379-.282h.762A.792.792,0,0,1,121.555,448.336Z" transform="translate(-117.066 -430.049)" fill="url(#linear-gradient)"/>
  <path id="Path_202" data-name="Path 202" d="M122.283,455.443l.273,1.02a.792.792,0,0,1-.56.97l-.735.2a.4.4,0,0,1-.44-.175l-.007-.011a3.563,3.563,0,0,1-.531-1.98v-.013a.4.4,0,0,1,.294-.371l.736-.2A.793.793,0,0,1,122.283,455.443Z" transform="translate(-117.442 -433.43)" fill="url(#linear-gradient)"/>
  <path id="Path_203" data-name="Path 203" d="M124.761,462.133l.528.914a.793.793,0,0,1-.29,1.083l-.66.381a.4.4,0,0,1-.47-.055l-.01-.01a3.566,3.566,0,0,1-1.025-1.775l0-.013a.4.4,0,0,1,.188-.434l.66-.381A.792.792,0,0,1,124.761,462.133Z" transform="translate(-118.617 -436.611)" fill="url(#linear-gradient)"/>
  <path id="Path_204" data-name="Path 204" d="M128.935,467.95l.747.747a.793.793,0,0,1,0,1.12l-.539.538a.4.4,0,0,1-.468.069l-.012-.006a3.571,3.571,0,0,1-1.449-1.449l-.006-.012a.4.4,0,0,1,.069-.468l.538-.539A.793.793,0,0,1,128.935,467.95Z" transform="translate(-120.623 -439.377)" fill="url(#linear-gradient)"/>
  <path id="Path_205" data-name="Path 205" d="M134.521,472.5l.914.528a.792.792,0,0,1,.29,1.082l-.381.66a.4.4,0,0,1-.434.188l-.013,0a3.565,3.565,0,0,1-1.775-1.025l-.01-.01a.4.4,0,0,1-.055-.47l.381-.66A.793.793,0,0,1,134.521,472.5Z" transform="translate(-123.325 -441.538)" fill="url(#linear-gradient)"/>
  <path id="Path_206" data-name="Path 206" d="M141.138,475.464l1.02.273a.793.793,0,0,1,.56.97l-.2.736a.4.4,0,0,1-.371.293h-.014a3.562,3.562,0,0,1-1.98-.531l-.011-.007a.4.4,0,0,1-.175-.44l.2-.735A.792.792,0,0,1,141.138,475.464Z" transform="translate(-126.54 -442.946)" fill="url(#linear-gradient)"/>
  <path id="Path_207" data-name="Path 207" d="M148.336,476.649h1.056a.792.792,0,0,1,.792.792v.762a.4.4,0,0,1-.282.379l-.013,0a3.568,3.568,0,0,1-2.05,0l-.013,0a.4.4,0,0,1-.282-.379v-.762A.792.792,0,0,1,148.336,476.649Z" transform="translate(-130.049 -443.507)" fill="url(#linear-gradient)"/>
  <path id="Path_208" data-name="Path 208" d="M155.443,475.737l1.02-.273a.792.792,0,0,1,.97.56l.2.735a.4.4,0,0,1-.175.44l-.012.007a3.56,3.56,0,0,1-1.98.531h-.013a.4.4,0,0,1-.371-.293l-.2-.736A.793.793,0,0,1,155.443,475.737Z" transform="translate(-133.43 -442.946)" fill="url(#linear-gradient)"/>
  <path id="Path_209" data-name="Path 209" d="M162.133,473.024l.914-.528a.792.792,0,0,1,1.082.29l.381.66a.4.4,0,0,1-.055.47l-.01.01a3.565,3.565,0,0,1-1.775,1.025l-.013,0a.4.4,0,0,1-.434-.188l-.381-.66A.792.792,0,0,1,162.133,473.024Z" transform="translate(-136.611 -441.538)" fill="url(#linear-gradient)"/>
  <path id="Path_210" data-name="Path 210" d="M167.95,468.7l.747-.747a.793.793,0,0,1,1.121,0l.538.539a.4.4,0,0,1,.069.468l-.006.012a3.57,3.57,0,0,1-1.449,1.449l-.012.006a.4.4,0,0,1-.468-.069l-.539-.538A.793.793,0,0,1,167.95,468.7Z" transform="translate(-139.377 -439.377)" fill="url(#linear-gradient)"/>
  <path id="Path_211" data-name="Path 211" d="M172.5,463.047l.528-.914a.792.792,0,0,1,1.082-.29l.66.381a.4.4,0,0,1,.188.434l0,.013a3.565,3.565,0,0,1-1.025,1.775l-.01.01a.4.4,0,0,1-.47.055l-.66-.381A.793.793,0,0,1,172.5,463.047Z" transform="translate(-141.538 -436.611)" fill="url(#linear-gradient)"/>
  <path id="Path_212" data-name="Path 212" d="M175.464,456.463l.273-1.02a.793.793,0,0,1,.97-.56l.736.2a.4.4,0,0,1,.293.371v.013a3.563,3.563,0,0,1-.531,1.98l-.007.011a.4.4,0,0,1-.44.175l-.735-.2A.792.792,0,0,1,175.464,456.463Z" transform="translate(-142.946 -433.43)" fill="url(#linear-gradient)"/>
  <path id="Path_213" data-name="Path 213" d="M176.649,449.393v-1.057a.792.792,0,0,1,.792-.792h.761a.4.4,0,0,1,.38.282l0,.013a3.566,3.566,0,0,1,0,2.049l0,.013a.4.4,0,0,1-.38.282h-.761A.792.792,0,0,1,176.649,449.393Z" transform="translate(-143.507 -430.049)" fill="url(#linear-gradient)"/>
  <path id="Path_214" data-name="Path 214" d="M175.737,442.158l-.273-1.02a.792.792,0,0,1,.56-.97l.735-.2a.4.4,0,0,1,.44.175l.007.011a3.563,3.563,0,0,1,.531,1.98v.013a.4.4,0,0,1-.293.371l-.736.2A.793.793,0,0,1,175.737,442.158Z" transform="translate(-142.946 -426.54)" fill="url(#linear-gradient)"/>
  <path id="Path_215" data-name="Path 215" d="M173.024,435.435l-.528-.914a.793.793,0,0,1,.29-1.083l.66-.381a.4.4,0,0,1,.47.055l.01.01a3.565,3.565,0,0,1,1.025,1.775l0,.013a.4.4,0,0,1-.188.434l-.66.381A.792.792,0,0,1,173.024,435.435Z" transform="translate(-141.538 -423.326)" fill="url(#linear-gradient)"/>
  <path id="Path_216" data-name="Path 216" d="M168.7,429.682l-.747-.747a.793.793,0,0,1,0-1.12l.539-.538a.4.4,0,0,1,.468-.069l.012.006a3.57,3.57,0,0,1,1.449,1.449l.006.012a.4.4,0,0,1-.069.468l-.538.539A.793.793,0,0,1,168.7,429.682Z" transform="translate(-139.377 -420.623)" fill="url(#linear-gradient)"/>
  <path id="Path_217" data-name="Path 217" d="M163.047,425.289l-.914-.528a.792.792,0,0,1-.29-1.082l.381-.66a.4.4,0,0,1,.434-.188l.013,0a3.566,3.566,0,0,1,1.775,1.025l.01.01a.4.4,0,0,1,.055.47l-.381.66A.792.792,0,0,1,163.047,425.289Z" transform="translate(-136.611 -418.617)" fill="url(#linear-gradient)"/>
  <path id="Path_218" data-name="Path 218" d="M156.463,422.557l-1.02-.273a.793.793,0,0,1-.56-.97l.2-.736a.4.4,0,0,1,.371-.294h.013a3.561,3.561,0,0,1,1.98.531l.012.007a.4.4,0,0,1,.175.44l-.2.735A.792.792,0,0,1,156.463,422.557Z" transform="translate(-133.43 -417.442)" fill="url(#linear-gradient)"/>
  <path id="Path_219" data-name="Path 219" d="M149.392,421.555h-1.056a.792.792,0,0,1-.792-.792V420a.4.4,0,0,1,.282-.379l.013,0a3.567,3.567,0,0,1,2.05,0l.013,0a.4.4,0,0,1,.282.379v.762A.792.792,0,0,1,149.392,421.555Z" transform="translate(-130.049 -417.066)" fill="url(#linear-gradient)"/>
  <path id="Path_220" data-name="Path 220" d="M142.158,422.283l-1.02.273a.792.792,0,0,1-.97-.56l-.2-.735a.4.4,0,0,1,.175-.44l.011-.007a3.563,3.563,0,0,1,1.98-.531h.014a.4.4,0,0,1,.371.294l.2.736A.793.793,0,0,1,142.158,422.283Z" transform="translate(-126.54 -417.442)" fill="url(#linear-gradient)"/>
  <path id="Path_221" data-name="Path 221" d="M135.435,424.761l-.914.528a.793.793,0,0,1-1.083-.29l-.381-.66a.4.4,0,0,1,.055-.47l.01-.01a3.566,3.566,0,0,1,1.775-1.025l.013,0a.4.4,0,0,1,.434.188l.381.66A.792.792,0,0,1,135.435,424.761Z" transform="translate(-123.325 -418.617)" fill="url(#linear-gradient)"/>
  <path id="Path_222" data-name="Path 222" d="M148.045,438.176a1.877,1.877,0,0,0-.9,1.762l-1.533,1.533a1.681,1.681,0,0,1-1.194.491H144.4a1.681,1.681,0,0,1-1.194-.491l-1.533-1.533a1.889,1.889,0,1,0-1.737,1.737l1.533,1.533a1.681,1.681,0,0,1,.491,1.194v.013a1.681,1.681,0,0,1-.491,1.194l-1.533,1.533a1.889,1.889,0,1,0,1.737,1.737l1.532-1.533a1.683,1.683,0,0,1,1.195-.491h.013a1.681,1.681,0,0,1,1.194.491l1.533,1.533a1.889,1.889,0,1,0,1.737-1.737l-1.533-1.533a1.681,1.681,0,0,1-.491-1.194V444.4a1.683,1.683,0,0,1,.491-1.195l1.533-1.532a1.887,1.887,0,1,0-.833-3.5Z" transform="translate(-125.592 -425.592)" fill="url(#linear-gradient)"/>
</svg>
